<?xml version="1.0" encoding="UTF-8"?>
<svg width="1440px" height="828px" viewBox="0 0 1440 828" version="1.1" xmlns="http://www.w3.org/2000/svg" xmlns:xlink="http://www.w3.org/1999/xlink">
    <!-- Generator: Sketch 52.4 (67378) - http://www.bohemiancoding.com/sketch -->
    <title>bg_slider@2x</title>
    <desc>Created with Sketch.</desc>
    <defs>
        <linearGradient x1="39.5248529%" y1="61.5788971%" x2="92.3757961%" y2="-45.5829367%" id="linearGradient-1">
            <stop stop-color="#FFC000" offset="0%"></stop>
            <stop stop-color="#C57A00" offset="100%"></stop>
        </linearGradient>
    </defs>
    <g id="Page-1" stroke="none" stroke-width="1" fill="none" fill-rule="evenodd">
        <g id="homepage">
            <g id="Group-6662">
                <g id="Group-11" transform="translate(-245.000000, -113.000000)">
                    <g id="Group-3" transform="translate(74.000000, 0.000000)">
                        <g id="bg_slider" transform="translate(171.000000, 113.000000)">
                            <path d="M981.653849,5.68434189e-14 L776.831482,204.822368 C670.804136,310.849713 670.804136,482.754005 776.831482,588.78135 C882.858827,694.808695 1054.76312,694.808695 1160.79046,588.78135 L1444,305.571814 L1444,827 L0,827 L0,0 L981.653849,0 Z" id="Rectangle-2" fill="#FFFFFF"></path>
                            <path d="M1446.21961,303.352203 L1466,1098 L0,1098 L497.752039,830.361487 L760.571979,571.036736 C765.682209,577.130111 771.102044,583.051912 776.831482,588.78135 C882.858827,694.808695 1054.76312,694.808695 1160.79046,588.78135 L1446.21961,303.352203 Z" id="Path-4" fill="url(#linearGradient-1)"></path>
                        </g>
                    </g>
                </g>
            </g>
        </g>
    </g>
</svg>