<?xml version="1.0" encoding="UTF-8"?>
<svg width="16px" height="16px" viewBox="0 0 16 16" version="1.1" xmlns="http://www.w3.org/2000/svg" xmlns:xlink="http://www.w3.org/1999/xlink">
    <!-- Generator: Sketch 52.5 (67469) - http://www.bohemiancoding.com/sketch -->
    <title>icon-check</title>
    <desc>Created with Sketch.</desc>
    <defs>
        <path d="M8,16 C3.581722,16 0,12.418278 0,8 C0,3.581722 3.581722,0 8,0 C12.418278,0 16,3.581722 16,8 C16,12.418278 12.418278,16 8,16 Z M8,14.9333333 C11.8291743,14.9333333 14.9333333,11.8291743 14.9333333,8 C14.9333333,4.17082573 11.8291743,1.06666667 8,1.06666667 C4.17082573,1.06666667 1.06666667,4.17082573 1.06666667,8 C1.06666667,11.8291743 4.17082573,14.9333333 8,14.9333333 Z M6.18133333,9.90933333 L11.8293333,4.26666667 L12.5813333,5.01866667 L6.18133333,11.4186667 L3.2,8.43733333 L3.95733333,7.68533333 L6.18133333,9.90933333 Z" id="path-1"></path>
    </defs>
    <g id="Symbols" stroke="none" stroke-width="1" fill="none" fill-rule="evenodd">
        <g id="Atoms-/-Elements-/-Bullets-/-v1---icon+label" transform="translate(-6.000000, -4.000000)">
            <g id="Atoms-/-icons-/-lined/check-circle" transform="translate(6.000000, 4.000000)">
                <mask id="mask-2" fill="white">
                    <use xlink:href="#path-1"></use>
                </mask>
                <use id="Mask" fill="#EA645A" fill-rule="nonzero" xlink:href="#path-1"></use>
                <g id="Atoms-/-🎨-Color/Primary" mask="url(#mask-2)" fill="#1CABA0" fill-rule="evenodd">
                    <polygon id="Rectangle-Copy-7" points="0 0 16 0 16 16 0 16"></polygon>
                </g>
            </g>
        </g>
    </g>
</svg>