<?xml version="1.0" encoding="UTF-8"?>
<svg width="100px" height="100px" viewBox="0 0 100 100" version="1.1" xmlns="http://www.w3.org/2000/svg" xmlns:xlink="http://www.w3.org/1999/xlink">
    <!-- Generator: Sketch 52.5 (67469) - http://www.bohemiancoding.com/sketch -->
    <title>service4@2x</title>
    <desc>Created with Sketch.</desc>
    <g id="Page-1" stroke="none" stroke-width="1" fill="none" fill-rule="evenodd">
        <g id="homepage" transform="translate(-741.000000, -2231.000000)">
            <g id="Group-13" transform="translate(665.000000, 2231.000000)">
                <g id="Group-7">
                    <g id="Group-2">
                        <g id="service4" transform="translate(76.000000, 0.000000)">
                            <path d="M65.650177,100 L2.0324707,100 C0.910186719,100 0,99.0898133 0,97.9675293 L0,89.4309998 C0,88.3087158 0.910186719,87.3985291 2.0324707,87.3985291 L65.650177,87.3985291 L65.650177,100 Z" id="Path" fill="#FF933B"></path>
                            <path d="M61.1785889,87.3985291 C60.2600098,89.4462586 59.7564697,91.7007445 59.7564697,94.0406799 L59.7564697,94.1055297 C59.7564697,95.0035096 59.0286254,95.7313537 58.1306457,95.7313537 L5.68434189e-14,95.7313537 L5.68434189e-14,97.9675293 C5.68434189e-14,99.0898133 0.910186719,100 2.0324707,100 L65.650177,100 L65.650177,87.3985291 L61.1785889,87.3985291 Z" id="Path" fill="#F27D27"></path>
                            <path d="M90.4472352,69.7151184 C90.4472352,65.0009156 86.6249084,61.1785889 81.9107055,61.1785889 C77.1957398,61.1785889 73.374176,65.0009156 73.374176,69.7151184 L73.374176,73.7808227 C73.374176,78.4950256 77.1957398,82.3173523 81.9107055,82.3173523 C86.6249084,82.3173523 90.4472352,78.4950256 90.4472352,73.7808227 L90.4472352,69.7151184 Z" id="Path" fill="#FECCC1"></path>
                            <path d="M81.9107055,61.1785889 C81.3186645,61.1785889 80.7411193,61.239624 80.1826477,61.3540648 C84.0690613,62.1528625 86.9918824,65.5929566 86.9918824,69.7151184 L86.9918824,73.7808227 C86.9918824,77.9029846 84.0690613,81.3430785 80.1826477,82.1418762 C80.7411193,82.2563172 81.3186645,82.3173523 81.9107055,82.3173523 C86.6249084,82.3173523 90.4472352,78.4950256 90.4472352,73.7808227 L90.4472352,69.7151184 C90.4472352,65.0009156 86.6249084,61.1785889 81.9107055,61.1785889 Z" id="Path" fill="#F9B3A7"></path>
                            <path d="M100,97.9675293 L100,94.0406799 C100,88.8473512 96.710968,84.2239379 91.8052674,82.5202941 L87.4526977,81.009674 C86.0710145,80.5297852 84.6191406,80.2848816 83.1565857,80.2848816 L80.6648254,80.2848816 C79.2022705,80.2848816 77.7496338,80.5297852 76.3687133,81.009674 L72.0161437,82.5202941 C67.1104432,84.2239379 63.8214111,88.8473512 63.8214111,94.0406799 L63.8214111,100 L97.9675293,100 C99.0898133,100 100,99.0898133 100,97.9675293 Z" id="Path" fill="#636363"></path>
                            <path d="M91.8052674,82.5202941 L90.6654357,82.1243285 C93.6706543,84.3864441 95.5284119,87.9669189 95.5284119,91.8701172 L95.5284119,100 L97.9675293,100 C99.0898133,100 100,99.0898133 100,97.9675293 L100,94.0406799 C100,88.8473512 96.710968,84.2239379 91.8052674,82.5202941 Z" id="Path" fill="#494949"></path>
                            <path d="M44.0406799,69.9188232 L41.0568238,68.8827516 L41.0568238,68.9025879 L34.1461182,80.8944703 L27.2354125,68.9025879 L27.2331238,68.8835145 L24.2515564,69.9188232 C19.3458557,71.622467 16.0568238,76.2458801 16.0568238,81.439209 L16.0568238,87.3985291 L52.2354125,87.3985291 L52.2354125,81.439209 C52.2354125,76.2458801 48.9471436,71.622467 44.0406799,69.9188232 Z" id="Path" fill="#636363"></path>
                            <path d="M44.0406799,69.9188232 L42.9008484,69.5228576 C45.9060668,71.784973 47.7645875,75.365448 47.7645875,79.2686463 L47.7645875,87.3985291 L52.2354125,87.3985291 L52.2354125,81.439209 C52.2354125,76.2458801 48.9471436,71.622467 44.0406799,69.9188232 Z" id="Path" fill="#494949"></path>
                            <polygon id="Path" fill="#DDF5FF" points="27.2354125 68.9025879 34.1461182 80.8944703 41.0568238 68.9025879 41.0568238 68.8827516 37.6014709 67.6826477 30.6907654 67.6826477 27.2331238 68.8835145"></polygon>
                            <path d="M42.6826477,57.1136475 C42.6826477,52.3994445 38.861084,48.577118 34.1461182,48.577118 C29.4319152,48.577118 25.6095887,52.3994445 25.6095887,57.1136475 L25.6095887,61.1785889 C25.6095887,65.8935547 29.4319152,69.7151184 34.1461182,69.7151184 C38.861084,69.7151184 42.6826477,65.8935547 42.6826477,61.1785889 L42.6826477,57.1136475 Z" id="Path" fill="#FECCC1"></path>
                            <path d="M34.1461182,48.577118 C33.55484,48.577118 32.976532,48.6373902 32.4188232,48.7518311 C36.3052367,49.5506287 39.2272949,52.9907227 39.2272949,57.1136475 L39.2272949,61.1785889 C39.2272949,65.3015137 36.3052367,68.7416076 32.4188232,69.5404053 C32.976532,69.6548461 33.5540771,69.7151184 34.1461182,69.7151184 C38.861084,69.7151184 42.6826477,65.8935547 42.6826477,61.1785889 L42.6826477,57.1136475 C42.6826477,52.3994445 38.861084,48.577118 34.1461182,48.577118 Z" id="Path" fill="#F9B3A7"></path>
                            <path d="M51.625824,0 L8.12988281,0 C3.63998418,0 2.84217094e-14,3.63998418 2.84217094e-14,8.12988281 L2.84217094e-14,29.2686463 C2.84217094e-14,33.7585449 3.63998418,37.3985291 8.12988281,37.3985291 L12.6014709,37.3985291 L19.9882508,44.7853088 C21.0128785,45.8099365 22.7645875,45.0843811 22.7645875,43.635559 L22.7645875,37.3985291 L51.625824,37.3985291 C56.1157227,37.3985291 59.7557068,33.7585449 59.7557068,29.2686463 L59.7557068,8.12988281 C59.7557068,3.63998418 56.1164855,0 51.625824,0 Z" id="Path" fill="#8DB0FF"></path>
                            <path d="M51.625824,0 L8.12988281,0 C3.63998418,0 2.84217094e-14,3.63998418 2.84217094e-14,8.12988281 L2.84217094e-14,29.2686463 C2.84217094e-14,33.7585449 3.63998418,37.3985291 8.12988281,37.3985291 L12.6014709,37.3985291 L19.9882508,44.7853088 C21.0128785,45.8099365 22.7645875,45.0843811 22.7645875,43.635559 L22.7645875,37.3985291 L51.625824,37.3985291 C56.1157227,37.3985291 59.7557068,33.7585449 59.7557068,29.2686463 L59.7557068,8.12988281 C59.7557068,3.63998418 56.1164855,0 51.625824,0 Z" id="Path" fill="#8DB0FF"></path>
                            <path d="M8.12988281,33.3335877 C3.63998418,33.3335877 0,29.6936035 0,25.2029418 L0,29.2686463 C0,33.7585449 3.63998418,37.3985291 8.12988281,37.3985291 L12.6014709,37.3985291 L19.9882508,44.7853088 C21.0128785,45.8099365 22.7645875,45.0843811 22.7645875,43.635559 L22.7645875,43.4959412 L13.7924195,34.5237732 C13.030243,33.7615967 11.9956971,33.3335877 10.9176637,33.3335877 L8.12988281,33.3335877 Z" id="Path" fill="#669AF7"></path>
                            <path d="M51.625824,0 L46.5446473,0 C49.4377137,0 51.9767762,1.51062012 53.4179688,3.78646855 C54.2755127,5.14144902 53.3050537,6.91070547 51.702118,6.91070547 L48.374176,6.91070547 C41.6389465,6.91070547 36.1785889,12.3703004 36.1785889,19.1055297 L36.1785889,31.301117 C36.1785889,32.4234008 35.269165,33.3335877 34.1461182,33.3335877 L26.8295289,33.3335877 C24.584198,33.3335877 22.7645875,35.1531982 22.7645875,37.3985291 L51.625824,37.3985291 C56.1157227,37.3985291 59.7557068,33.7585449 59.7557068,29.2686463 L59.7557068,8.12988281 C59.7557068,3.63998418 56.1164855,0 51.625824,0 Z" id="Path" fill="#669AF7"></path>
                            <path d="M48.374176,10.9756469 L91.8701172,10.9756469 C96.3600158,10.9756469 100,14.6156311 100,19.1055297 L100,40.2442932 C100,44.7341918 96.3600158,48.374176 91.8701172,48.374176 L70.9350586,48.374176 L70.9350586,54.6112061 C70.9350586,56.0600281 69.1833496,56.7848205 68.1594848,55.7609559 L60.7727051,48.374176 L48.374176,48.374176 C43.8842773,48.374176 40.2442932,44.7341918 40.2442932,40.2442932 L40.2442932,19.1055297 C40.2442932,14.6156311 43.8835145,10.9756469 48.374176,10.9756469 Z" id="Path" fill="#FFD664"></path>
                            <g id="Group" transform="translate(40.234375, 10.937500)" fill="#F9C646">
                                <path d="M8.13980098,32.9650879 C3.64990234,32.9650879 0.00991816406,29.3251037 0.00991816406,24.8344422 L0.00991816406,29.3060303 C0.00991816406,33.7959289 3.64990234,37.436676 8.13980098,37.436676 L20.5383301,37.436676 L27.9251098,44.8234559 C28.9489746,45.8473205 30.7006836,45.1217652 30.7006836,43.6737061 L30.7006836,43.1274414 L21.7285156,34.1552734 C20.9663391,33.3930969 19.9325563,32.9650879 18.8537598,32.9650879 L8.13980098,32.9650879 Z" id="Path"></path>
                                <path d="M51.6357422,0.038146875 L46.5545654,0.038146875 C51.0444641,0.038146875 54.6844482,3.67813105 54.6844482,8.16802969 L54.6844482,28.9001465 C54.6844482,31.1447145 52.8640746,32.9650879 50.6195068,32.9650879 L34.765625,32.9650879 C32.5202941,32.9650879 30.7006836,34.7846984 30.7006836,37.0300293 L30.7006836,37.436676 L51.6357422,37.436676 C56.1256408,37.436676 59.765625,33.7959289 59.765625,29.3060303 L59.765625,8.16802969 C59.765625,3.67813105 56.1256408,0.038146875 51.6357422,0.038146875 Z" id="Path"></path>
                            </g>
                        </g>
                    </g>
                </g>
            </g>
        </g>
    </g>
</svg>