<?xml version="1.0" encoding="UTF-8"?>
<svg width="112px" height="100px" viewBox="0 0 112 100" version="1.1" xmlns="http://www.w3.org/2000/svg" xmlns:xlink="http://www.w3.org/1999/xlink">
    <!-- Generator: Sketch 52.5 (67469) - http://www.bohemiancoding.com/sketch -->
    <title>service5@2x</title>
    <desc>Created with Sketch.</desc>
    <g id="Page-1" stroke="none" stroke-width="1" fill="none" fill-rule="evenodd">
        <g id="homepage" transform="translate(-1115.000000, -2231.000000)">
            <g id="Group-13" transform="translate(665.000000, 2231.000000)">
                <g id="Group-7">
                    <g id="service5" transform="translate(450.000000, 0.000000)">
                        <path d="M55.6521739,96.3731317 L63.6200748,99.6255096 C65.1078465,100.232677 66.7374322,99.1380774 66.7374322,97.5305707 L66.7374322,81.668648 L44.5669157,81.668648 L44.5669157,97.5305707 C44.5669157,99.1380774 46.1965013,100.232677 47.684273,99.6255096 L55.6521739,96.3731317 Z" id="Path" fill="#FF6969"></path>
                        <path d="M62.6655911,81.668648 L44.5669157,81.668648 L44.5669157,88.2659648 C47.6893683,90.5171535 51.5174933,91.8486752 55.6521739,91.8486752 C57.1059783,91.8486752 58.52072,91.6830843 59.880265,91.3714335 C61.3043478,91.0444974 62.6655911,92.1102241 62.6655911,93.570822 L62.6655911,99.2357337 L63.6200748,99.6255096 C65.1078465,100.232677 66.7374322,99.1380774 66.7374322,97.5314198 L66.7374322,81.668648 C66.7374322,81.668648 64.5584239,81.668648 62.6655911,81.668648 Z" id="Path" fill="#EA4747"></path>
                        <path d="M106.779891,76.9174591 L4.52445652,76.9174591 C2.02530565,76.9174591 0,74.8921535 0,72.3930026 L0,4.52445652 C0,2.02530565 2.02530565,0 4.52445652,0 L106.779891,0 C109.279042,0 111.304348,2.02530565 111.304348,4.52445652 L111.304348,72.3930026 C111.304348,74.8921535 109.279042,76.9174591 106.779891,76.9174591 Z" id="Path" fill="#5D3D80"></path>
                        <path d="M107.45839,0.056046087 L107.45839,71.0360054 C107.45839,72.2851563 106.445313,73.2982337 105.196162,73.2982337 L0.0908628261,73.2982337 C0.51036,75.3634511 2.33525826,76.9174591 4.52445652,76.9174591 L106.779891,76.9174591 C109.279042,76.9174591 111.304348,74.8921535 111.304348,72.3930026 L111.304348,4.52445652 C111.304348,2.25713304 109.63485,0.384680652 107.45839,0.056046087 Z" id="Path" fill="#313031"></path>
                        <path d="M103.159817,17.6460598 L103.159817,59.2722487 C97.9118546,59.2722487 93.658288,63.5249661 93.658288,68.7737772 L17.6460598,68.7737772 C17.6460598,63.5249661 13.3924933,59.2722487 8.1445313,59.2722487 L8.1445313,17.6460598 C13.3924933,17.6460598 17.6460598,13.3924933 17.6460598,8.1445313 L93.658288,8.1445313 C93.658288,13.3924933 97.9118546,17.6460598 103.159817,17.6460598 Z" id="Path" fill="#DDF5FF"></path>
                        <path d="M70.1307743,72.8456183 C70.1307743,80.8423913 63.648947,87.3242187 55.6521739,87.3242187 C47.6554009,87.3242187 41.1735735,80.8423913 41.1735735,72.8456183 C41.1735735,64.8496943 47.6554009,58.3670176 55.6521739,58.3670176 C63.648947,58.3670176 70.1307743,64.8496943 70.1307743,72.8456183 Z" id="Path" fill="#FFD664"></path>
                        <path d="M55.6521739,64.1737433 C50.8704143,64.1737433 46.9802989,68.0638587 46.9802989,72.8456183 C46.9802989,77.6273778 50.8704143,81.5174933 55.6521739,81.5174933 C60.4339335,81.5174933 64.3240489,77.6273778 64.3240489,72.8456183 C64.3240489,68.0638587 60.4339335,64.1737433 55.6521739,64.1737433 Z M55.6521739,78.2243546 C52.6859715,78.2243546 50.2734374,75.8109715 50.2734374,72.8456183 C50.2734374,69.8794157 52.6859715,67.4668817 55.6521739,67.4668817 C58.6183763,67.4668817 61.0309104,69.8794157 61.0309104,72.8456183 C61.0309104,75.8109715 58.6183763,78.2243546 55.6521739,78.2243546 Z" id="Shape" fill="#F9C646" fill-rule="nonzero"></path>
                        <path d="M64.3775476,61.2924591 C66.2126359,63.7185802 67.3029891,66.7408287 67.3029891,70.0178328 C67.3029891,78.0137567 60.8203126,84.4964335 52.8243887,84.4964335 C49.5473846,84.4964335 46.5251359,83.4060802 44.099015,81.5709917 C46.7425272,85.0653872 50.9324048,87.3242187 55.6521739,87.3242187 C63.6480978,87.3242187 70.1307743,80.8415422 70.1307743,72.8456183 C70.1307743,68.1266983 67.871943,63.9359715 64.3775476,61.2924591 Z" id="Path" fill="#F9C646"></path>
                        <path d="M59.724015,47.5076426 C59.724015,49.757133 57.9008152,51.5803328 55.6521739,51.5803328 C53.4035326,51.5803328 51.5803328,49.757133 51.5803328,47.5076426 C51.5803328,45.2590013 53.4035326,43.4358017 55.6521739,43.4358017 C57.9008152,43.4358017 59.724015,45.2590013 59.724015,47.5076426 Z" id="Path" fill="#FFD664"></path>
                        <g id="Group" transform="translate(27.608696, 17.173913)" fill="#636363">
                            <path d="M42.9746943,3.52581522 L13.1122622,3.52581522 C12.1756113,3.52581522 11.4155911,2.76664391 11.4155911,1.82914391 C11.4155911,0.892493261 12.1756113,0.132472826 13.1122622,0.132472826 L42.9746943,0.132472826 C43.9113452,0.132472826 44.6713654,0.892493261 44.6713654,1.82914391 C44.6713654,2.76664391 43.9113452,3.52581522 42.9746943,3.52581522 Z" id="Path"></path>
                            <path d="M54.2858357,12.5755774 L1.80112087,12.5755774 C0.86447,12.5755774 0.104449783,11.815557 0.104449783,10.878057 C0.104449783,9.9414063 0.86362087,9.18138587 1.80112087,9.18138587 L54.2858357,9.18138587 C55.2233357,9.18138587 55.9825067,9.9414063 55.9825067,10.878057 C55.9825067,11.815557 55.2233357,12.5755774 54.2858357,12.5755774 Z" id="Path"></path>
                            <path d="M54.2858357,21.6244904 L1.80112087,21.6244904 C0.86447,21.6244904 0.104449783,20.86447 0.104449783,19.9278193 C0.104449783,18.9903193 0.86362087,18.231148 1.80112087,18.231148 L54.2858357,18.231148 C55.2233357,18.231148 55.9825067,18.9903193 55.9825067,19.9278193 C55.9825067,20.86447 55.2233357,21.6244904 54.2858357,21.6244904 Z" id="Path"></path>
                            <path d="M54.2858357,32.03125 L46.1421535,32.03125 C45.2046535,32.03125 44.444633,31.2712296 44.444633,30.3337296 C44.444633,29.3970787 45.2046535,28.6370585 46.1421535,28.6370585 L54.2858357,28.6370585 C55.2224865,28.6370585 55.9825067,29.3970787 55.9825067,30.3337296 C55.9825067,31.2712296 55.2233357,32.03125 54.2858357,32.03125 Z" id="Path"></path>
                            <path d="M9.94480304,32.03125 L1.80112087,32.03125 C0.86447,32.03125 0.104449783,31.2712296 0.104449783,30.3337296 C0.104449783,29.3970787 0.86362087,28.6370585 1.80112087,28.6370585 L9.94480304,28.6370585 C10.882303,28.6370585 11.6423235,29.3970787 11.6423235,30.3337296 C11.6423235,31.2712296 10.882303,32.03125 9.94480304,32.03125 Z" id="Path"></path>
                        </g>
                    </g>
                </g>
            </g>
        </g>
    </g>
</svg>