<?xml version="1.0" encoding="UTF-8"?>
<svg width="69px" height="69px" viewBox="0 0 69 69" version="1.1" xmlns="http://www.w3.org/2000/svg" xmlns:xlink="http://www.w3.org/1999/xlink">
    <!-- Generator: Sketch 52.5 (67469) - http://www.bohemiancoding.com/sketch -->
    <title>service3@2x</title>
    <desc>Created with Sketch.</desc>
    <g id="Page-1" stroke="none" stroke-width="1" fill="none" fill-rule="evenodd">
        <g id="homepage" transform="translate(-718.000000, -2060.000000)">
            <g id="service3" transform="translate(718.000000, 2060.000000)">
                <path d="M69,15.9876251 L0,15.9876251 L0,6.17079156 C0,5.39641574 0.628028836,4.76838677 1.40240479,4.76838677 L67.5975952,4.76838677 C68.3719712,4.76838677 69,5.39588921 69,6.17079156 L69,15.9876251 Z" id="Path" fill="#8DB0FF"></path>
                <path d="M65.9146042,4.76838677 L65.9146042,15.9876251 L69,15.9876251 L69,6.17079156 C69,5.39641574 68.3719712,4.76838677 67.5975952,4.76838677 L65.9146042,4.76838677 Z" id="Path" fill="#669AF7"></path>
                <path d="M67.5975952,69 L1.40240479,69 C0.628028836,69 0,68.3719712 0,67.5975952 L0,15.9876251 L69,15.9876251 L69,67.5975952 C69,68.3719712 68.3719712,69 67.5975952,69 Z" id="Path" fill="#DDF5FF"></path>
                <path d="M65.9146042,15.9876251 L65.9146042,63.1097947 C65.9146042,64.6590728 64.6590728,65.9146042 63.1097947,65.9146042 L0,65.9146042 L0,67.5975952 C0,68.3719712 0.628028836,69 1.40240479,69 L67.5975952,69 C68.3719712,69 69,68.3719712 69,67.5975952 L69,15.9876251 L65.9146042,15.9876251 Z" id="Path" fill="#C1E9F4"></path>
                <path d="M9.53677368,10.0974197 L7.85378269,10.0974197 C7.07888034,10.0974197 6.45085151,9.46991726 6.45085151,8.69501492 L6.45085151,1.40240479 C6.4513779,0.628028836 7.07888034,0 7.85378269,0 L9.53677368,0 C10.3111496,0 10.9391785,0.628028836 10.9391785,1.40240479 L10.9391785,8.69501492 C10.9391785,9.46991726 10.3111496,10.0974197 9.53677368,10.0974197 Z" id="Path" fill="#C9D2E3"></path>
                <path d="M22.439003,10.0974197 L20.756012,10.0974197 C19.981636,10.0974197 19.3536072,9.46991726 19.3536072,8.69501492 L19.3536072,1.40240479 C19.3536072,0.628028836 19.981636,0 20.756012,0 L22.439003,0 C23.2133789,0 23.8414077,0.628028836 23.8414077,1.40240479 L23.8414077,8.69501492 C23.8414077,9.46991726 23.2133789,10.0974197 22.439003,10.0974197 Z" id="Path" fill="#C9D2E3"></path>
                <path d="M59.4632263,10.0974197 L61.1462173,10.0974197 C61.9211197,10.0974197 62.5491485,9.46991726 62.5491485,8.69501492 L62.5491485,1.40240479 C62.5486221,0.628028836 61.9211197,0 61.1462173,0 L59.4632263,0 C58.6888504,0 58.0608215,0.628028836 58.0608215,1.40240479 L58.0608215,8.69501492 C58.0608215,9.46991726 58.6888504,10.0974197 59.4632263,10.0974197 Z" id="Path" fill="#C9D2E3"></path>
                <path d="M60.7256011,0 L60.7256011,6.87199409 C60.7256011,7.6463699 60.0975723,8.27439887 59.3231963,8.27439887 L58.0608215,8.27439887 L58.0608215,8.69501492 C58.0608215,9.46991726 58.6888504,10.0979462 59.4637527,10.0979462 L61.1467437,10.0979462 C61.9211197,10.0979462 62.5491485,9.46991726 62.5491485,8.69501492 L62.5491485,1.40240479 C62.5486221,0.628028836 61.9211197,0 61.1462173,0 L60.7256011,0 Z" id="Path" fill="#ADBBD5"></path>
                <path d="M46.560997,10.0974197 L48.243988,10.0974197 C49.018364,10.0974197 49.6463928,9.46991726 49.6463928,8.69501492 L49.6463928,1.40240479 C49.6463928,0.628028836 49.018364,0 48.243988,0 L46.560997,0 C45.7866211,0 45.1585923,0.628028836 45.1585923,1.40240479 L45.1585923,8.69501492 C45.1585923,9.46991726 45.7866211,10.0974197 46.560997,10.0974197 Z" id="Path" fill="#C9D2E3"></path>
                <path d="M47.8233719,0 L47.8233719,6.87199409 C47.8233719,7.6463699 47.195343,8.27439887 46.4209671,8.27439887 L45.1585923,8.27439887 L45.1585923,8.69501492 C45.1585923,9.46991726 45.7866211,10.0979462 46.560997,10.0979462 L48.243988,10.0979462 C49.018364,10.0979462 49.6463928,9.46991726 49.6463928,8.69501492 L49.6463928,1.40240479 C49.6463928,0.628028836 49.018364,0 48.243988,0 L47.8233719,0 Z" id="Path" fill="#ADBBD5"></path>
                <path d="M35.3412324,10.0974197 L33.6587676,10.0974197 C32.8838653,10.0974197 32.2558365,9.46991726 32.2558365,8.69501492 L32.2558365,1.40240479 C32.2563628,0.628028836 32.8838653,0 33.6587676,0 L35.3412324,0 C36.1161347,0 36.7441635,0.628028836 36.7441635,1.40240479 L36.7441635,8.69501492 C36.7436372,9.46991726 36.1161347,10.0974197 35.3412324,10.0974197 Z" id="Path" fill="#C9D2E3"></path>
                <path d="M34.9206162,0 L34.9206162,6.87199409 C34.9206162,7.6463699 34.2931137,8.27439887 33.5182114,8.27439887 L32.2563628,8.27439887 L32.2563628,8.69501492 C32.2563628,9.46991726 32.8838653,10.0979462 33.6587676,10.0979462 L35.3417588,10.0979462 C36.1161347,10.0979462 36.7441635,9.46991726 36.7441635,8.69501492 L36.7441635,1.40240479 C36.7436372,0.628028836 36.1161347,0 35.3412324,0 L34.9206162,0 Z" id="Path" fill="#ADBBD5"></path>
                <path d="M22.0183868,0 L22.0183868,6.87199409 C22.0183868,7.6463699 21.3903579,8.27439887 20.615982,8.27439887 L19.3536072,8.27439887 L19.3536072,8.69501492 C19.3536072,9.46991726 19.981636,10.0979462 20.756012,10.0979462 L22.439003,10.0979462 C23.2139053,10.0979462 23.8414077,9.46991726 23.8414077,8.69501492 L23.8414077,1.40240479 C23.8414077,0.628028836 23.2133789,0 22.439003,0 L22.0183868,0 Z" id="Path" fill="#ADBBD5"></path>
                <path d="M9.1156311,0 L9.1156311,6.87199409 C9.1156311,7.6463699 8.48812866,8.27439887 7.71322632,8.27439887 L6.4513779,8.27439887 L6.4513779,8.69501492 C6.4513779,9.46991726 7.07888034,10.0979462 7.85378269,10.0979462 L9.53677368,10.0979462 C10.3111496,10.0979462 10.9391785,9.46991726 10.9391785,8.69501492 L10.9391785,1.40240479 C10.9391785,0.628028836 10.3111496,0 9.53677368,0 L9.1156311,0 Z" id="Path" fill="#ADBBD5"></path>
                <path d="M19.9147797,26.2256011 L5.89020535,26.2256011 C5.11582954,26.2256011 4.48780056,25.5975723 4.48780056,24.8231963 L4.48780056,22.8601455 C4.48780056,22.0852432 5.11582954,21.4572144 5.89020535,21.4572144 L19.9147797,21.4572144 C20.6891555,21.4572144 21.3171845,22.0852432 21.3171845,22.8601455 L21.3171845,24.8231963 C21.3171845,25.5975723 20.6891555,26.2256011 19.9147797,26.2256011 Z" id="Path" fill="#7AE57D"></path>
                <path d="M41.5120239,26.2256011 L27.4879761,26.2256011 C26.7130737,26.2256011 26.0850449,25.5975723 26.0850449,24.8231963 L26.0850449,22.8601455 C26.0850449,22.0852432 26.7130737,21.4572144 27.4879761,21.4572144 L41.5120239,21.4572144 C42.2863999,21.4572144 42.9144287,22.0852432 42.9144287,22.8601455 L42.9144287,24.8231963 C42.9144287,25.5975723 42.2869263,26.2256011 41.5120239,26.2256011 Z" id="Path" fill="#FF6969"></path>
                <path d="M63.1097947,26.2256011 L49.0852203,26.2256011 C48.3108445,26.2256011 47.6828155,25.5975723 47.6828155,24.8231963 L47.6828155,22.8601455 C47.6828155,22.0852432 48.3108445,21.4572144 49.0852203,21.4572144 L63.1097947,21.4572144 C63.8841705,21.4572144 64.5121994,22.0852432 64.5121994,22.8601455 L64.5121994,24.8231963 C64.5121994,25.5975723 63.8841705,26.2256011 63.1097947,26.2256011 Z" id="Path" fill="#FFD664"></path>
                <path d="M19.9147797,49.5063628 L5.89020535,49.5063628 C5.11582954,49.5063628 4.48780056,48.878334 4.48780056,48.1039581 L4.48780056,46.1403809 C4.48780056,45.3660049 5.11582954,44.7379761 5.89020535,44.7379761 L19.9147797,44.7379761 C20.6891555,44.7379761 21.3171845,45.3660049 21.3171845,46.1403809 L21.3171845,48.1039581 C21.3171845,48.878334 20.6891555,49.5063628 19.9147797,49.5063628 Z" id="Path" fill="#7AE57D"></path>
                <path d="M41.5120239,49.5063628 L27.4879761,49.5063628 C26.7130737,49.5063628 26.0850449,48.878334 26.0850449,48.1039581 L26.0850449,46.1403809 C26.0850449,45.3660049 26.7130737,44.7379761 27.4879761,44.7379761 L41.5120239,44.7379761 C42.2863999,44.7379761 42.9144287,45.3660049 42.9144287,46.1403809 L42.9144287,48.1039581 C42.9144287,48.878334 42.2869263,49.5063628 41.5120239,49.5063628 Z" id="Path" fill="#FF6969"></path>
                <path d="M63.1097947,49.5063628 L49.0852203,49.5063628 C48.3108445,49.5063628 47.6828155,48.878334 47.6828155,48.1039581 L47.6828155,46.1403809 C47.6828155,45.3660049 48.3108445,44.7379761 49.0852203,44.7379761 L63.1097947,44.7379761 C63.8841705,44.7379761 64.5121994,45.3660049 64.5121994,46.1403809 L64.5121994,48.1039581 C64.5121994,48.878334 63.8841705,49.5063628 63.1097947,49.5063628 Z" id="Path" fill="#FFD664"></path>
                <g id="Group" transform="translate(3.369141, 29.513672)" fill="#636363">
                    <path d="M17.9480439,2.11150363 L1.11865994,2.11150363 C0.538009711,2.11150363 0.066856418,1.64035034 0.066856418,1.05969998 C0.066856418,0.478523221 0.537483182,0.00789645703 1.11865994,0.00789645703 L17.9480439,0.00789645703 C18.5286941,0.00789645703 18.9998474,0.478523221 18.9998474,1.05969998 C18.9998474,1.64035034 18.5286941,2.11150363 17.9480439,2.11150363 Z" id="Path"></path>
                    <path d="M17.9480439,7.86115262 L1.11865994,7.86115262 C0.538009711,7.86115262 0.066856418,7.39052585 0.066856418,6.80934909 C0.066856418,6.22869873 0.537483182,5.75754544 1.11865994,5.75754544 L17.9480439,5.75754544 C18.5286941,5.75754544 18.9998474,6.22869873 18.9998474,6.80934909 C18.9998474,7.39052585 18.5286941,7.86115262 17.9480439,7.86115262 Z" id="Path"></path>
                    <path d="M39.5452881,2.11150363 L22.7164307,2.11150363 C22.1352539,2.11150363 21.664627,1.64035034 21.664627,1.05969998 C21.664627,0.478523221 22.1352539,0.00789645703 22.7164307,0.00789645703 L39.5452881,0.00789645703 C40.1264648,0.00789645703 40.5970917,0.478523221 40.5970917,1.05969998 C40.5970917,1.64035034 40.1264648,2.11150363 39.5452881,2.11150363 Z" id="Path"></path>
                    <path d="M39.5452881,7.86115262 L22.7164307,7.86115262 C22.1352539,7.86115262 21.664627,7.39052585 21.664627,6.80934909 C21.664627,6.22869873 22.1352539,5.75754544 22.7164307,5.75754544 L39.5452881,5.75754544 C40.1264648,5.75754544 40.5970917,6.22869873 40.5970917,6.80934909 C40.5970917,7.39052585 40.1264648,7.86115262 39.5452881,7.86115262 Z" id="Path"></path>
                    <path d="M61.1430588,2.11150363 L44.3136749,2.11150363 C43.7330246,2.11150363 43.2618713,1.64035034 43.2618713,1.05969998 C43.2618713,0.478523221 43.7330246,0.00789645703 44.3136749,0.00789645703 L61.1430588,0.00789645703 C61.723709,0.00789645703 62.1948623,0.478523221 62.1948623,1.05969998 C62.1948623,1.64035034 61.7242356,2.11150363 61.1430588,2.11150363 Z" id="Path"></path>
                    <path d="M61.1430588,7.86115262 L44.3136749,7.86115262 C43.7330246,7.86115262 43.2618713,7.39052585 43.2618713,6.80934909 C43.2618713,6.22869873 43.7330246,5.75754544 44.3136749,5.75754544 L61.1430588,5.75754544 C61.723709,5.75754544 62.1948623,6.22869873 62.1948623,6.80934909 C62.1948623,7.39052585 61.7242356,7.86115262 61.1430588,7.86115262 Z" id="Path"></path>
                    <path d="M17.9480439,25.3917388 L1.11865994,25.3917388 C0.538009711,25.3917388 0.066856418,24.9211121 0.066856418,24.3399353 C0.066856418,23.7592849 0.537483182,23.2881318 1.11865994,23.2881318 L17.9480439,23.2881318 C18.5286941,23.2881318 18.9998474,23.7592849 18.9998474,24.3399353 C18.9998474,24.9211121 18.5286941,25.3917388 17.9480439,25.3917388 Z" id="Path"></path>
                    <path d="M17.9480439,31.1419143 L1.11865994,31.1419143 C0.538009711,31.1419143 0.066856418,30.6707612 0.066856418,30.0901108 C0.066856418,29.5089341 0.537483182,29.0383072 1.11865994,29.0383072 L17.9480439,29.0383072 C18.5286941,29.0383072 18.9998474,29.5089341 18.9998474,30.0901108 C18.9998474,30.6707612 18.5286941,31.1419143 17.9480439,31.1419143 Z" id="Path"></path>
                    <path d="M39.5452881,25.3917388 L22.7164307,25.3917388 C22.1352539,25.3917388 21.664627,24.9211121 21.664627,24.3399353 C21.664627,23.7592849 22.1352539,23.2881318 22.7164307,23.2881318 L39.5452881,23.2881318 C40.1264648,23.2881318 40.5970917,23.7592849 40.5970917,24.3399353 C40.5970917,24.9211121 40.1264648,25.3917388 39.5452881,25.3917388 Z" id="Path"></path>
                    <path d="M39.5452881,31.1419143 L22.7164307,31.1419143 C22.1352539,31.1419143 21.664627,30.6707612 21.664627,30.0901108 C21.664627,29.5089341 22.1352539,29.0383072 22.7164307,29.0383072 L39.5452881,29.0383072 C40.1264648,29.0383072 40.5970917,29.5089341 40.5970917,30.0901108 C40.5970917,30.6707612 40.1264648,31.1419143 39.5452881,31.1419143 Z" id="Path"></path>
                    <path d="M61.1430588,25.3917388 L44.3136749,25.3917388 C43.7330246,25.3917388 43.2618713,24.9211121 43.2618713,24.3399353 C43.2618713,23.7592849 43.7330246,23.2881318 44.3136749,23.2881318 L61.1430588,23.2881318 C61.723709,23.2881318 62.1948623,23.7592849 62.1948623,24.3399353 C62.1948623,24.9211121 61.7242356,25.3917388 61.1430588,25.3917388 Z" id="Path"></path>
                    <path d="M61.1430588,31.1419143 L44.3136749,31.1419143 C43.7330246,31.1419143 43.2618713,30.6707612 43.2618713,30.0901108 C43.2618713,29.5089341 43.7330246,29.0383072 44.3136749,29.0383072 L61.1430588,29.0383072 C61.723709,29.0383072 62.1948623,29.5089341 62.1948623,30.0901108 C62.1948623,30.6707612 61.7242356,31.1419143 61.1430588,31.1419143 Z" id="Path"></path>
                </g>
            </g>
        </g>
    </g>
</svg>