<?xml version="1.0" encoding="UTF-8"?>
<svg width="82px" height="81px" viewBox="0 0 82 81" version="1.1" xmlns="http://www.w3.org/2000/svg" xmlns:xlink="http://www.w3.org/1999/xlink">
    <!-- Generator: Sketch 52.5 (67469) - http://www.bohemiancoding.com/sketch -->
    <title>service2@2x</title>
    <desc>Created with Sketch.</desc>
    <g id="Page-1" stroke="none" stroke-width="1" fill="none" fill-rule="evenodd">
        <g id="homepage" transform="translate(-709.000000, -1914.000000)">
            <g id="service2" transform="translate(709.000000, 1914.000000)">
                <path d="M61.0001373,62.2469787 L56.5001221,62.2469787 L47.510727,64.7231445 C43.1721191,65.918686 40.166687,69.8644103 40.166687,74.3644257 L40.166687,79.2466889 C40.166687,80.1669618 40.9130401,80.9133149 41.833313,80.9133149 L80.333374,80.9133149 C81.2536469,80.9133149 82,80.1669618 82,79.2466889 L82,74.3844452 C82,69.8750458 78.9814301,65.9236908 74.6309356,64.736908 L65.5001525,62.2469787 L61.0001373,62.2469787 Z" id="Path" fill="#FF6969"></path>
                <path d="M74.6309356,64.736908 L72.9086304,64.2670746 C75.2290191,66.1226348 76.6666718,68.9679107 76.6666718,72.0803223 L76.6666718,80.9133149 L80.333374,80.9133149 C81.2536469,80.9133149 82,80.1669618 82,79.2466889 L82,74.3850708 C82,69.8750458 78.9814301,65.9236908 74.6309356,64.736908 Z" id="Path" fill="#EA4747"></path>
                <path d="M56.5001221,55.4134369 L56.5001221,62.2469787 L60.3357392,65.6559296 C60.7142334,65.9931336 61.2854156,65.9931336 61.66391,65.6559296 L65.4995269,62.2469787 L65.4995269,55.4134369 L56.5001221,55.4134369 Z" id="Path" fill="#F9B3A7"></path>
                <path d="M48.6668549,46.913269 L52.0001069,46.913269 L52.0001069,40.5802154 L48.6668549,40.5802154 C47.7459565,40.5802154 47.0002289,41.325943 47.0002289,42.2468414 L47.0002289,45.2466431 C47.0002289,46.1669159 47.7459565,46.913269 48.6668549,46.913269 Z" id="Path" fill="#FECCC1"></path>
                <path d="M73.3334198,46.913269 L70.0001679,46.913269 L70.0001679,40.5802154 L73.3334198,40.5802154 C74.2536925,40.5802154 75.0000458,41.325943 75.0000458,42.2468414 L75.0000458,45.2466431 C75.0000458,46.1669159 74.2536925,46.913269 73.3334198,46.913269 Z" id="Path" fill="#F9B3A7"></path>
                <path d="M61.0001373,37.0799256 L50.3334809,37.0799256 L50.3334809,47.080307 C50.3334809,52.9710541 55.1087646,57.7469635 61.0001373,57.7469635 C66.8908844,57.7469635 71.6667939,52.9710541 71.6667939,47.080307 L71.6667939,37.0799256 L61.0001373,37.0799256 Z" id="Path" fill="#FECCC1"></path>
                <path d="M67.3331909,37.0799256 L67.3331909,47.080307 C67.3331909,52.2284546 63.6852569,56.5251465 58.8336486,57.526123 C59.5330811,57.6706391 60.2575379,57.7469635 61.0001373,57.7469635 C66.8908844,57.7469635 71.6667939,52.9710541 71.6667939,47.080307 L71.6667939,37.0799256 L67.3331909,37.0799256 Z" id="Path" fill="#F9B3A7"></path>
                <path d="M58.6666108,26.580307 L63.3330382,26.580307 C65.1742096,26.580307 66.6669159,28.0723877 66.6669159,29.913559 L66.6669159,37.2469635 C66.6669159,39.0875092 65.1742096,40.5802154 63.3330382,40.5802154 L50.3334809,40.5802154 L50.3334809,34.9134369 C50.3334809,30.3108215 54.0639953,26.580307 58.6666108,26.580307 Z" id="Path" fill="#FFD664"></path>
                <path d="M68.3335419,29.913559 L66.6669159,29.913559 C66.6669159,28.2425537 65.4363403,26.8637085 63.8335265,26.6215973 L63.8335265,35.7467499 C63.8335265,36.6670226 63.0871734,37.4133759 62.1669006,37.4133759 L50.3334809,37.4133759 L50.3334809,40.5802154 L63.333664,40.5802154 C64.6737213,40.5802154 65.8292236,39.7888184 66.3591156,38.6483306 C66.4811095,38.3836974 66.8520966,38.3836974 66.9747162,38.6483306 C67.5039825,39.7888184 68.6594849,40.5802154 70.0001679,40.5802154 L71.6667939,40.5802154 L71.6667939,33.246811 C71.6667939,31.4056396 70.1740875,29.913559 68.3335419,29.913559 Z" id="Path" fill="#F9C646"></path>
                <path d="M6.66650391,0.080078125 L38.9999237,0.080078125 C42.6816406,0.080078125 45.6664277,3.06486515 45.6664277,6.74658203 L45.6664277,30.9132843 C45.6664277,34.5950011 42.6816406,37.5797882 38.9999237,37.5797882 L25.1664277,37.5797882 L25.1664277,42.247467 C25.1664277,43.6006622 23.5310821,44.2775727 22.5745239,43.3216401 L16.8332978,37.5797882 L6.66650391,37.5797882 C2.98478703,37.5804139 -2.84217094e-14,34.5950011 -2.84217094e-14,30.9132843 L-2.84217094e-14,6.74658203 C-2.84217094e-14,3.06486515 2.98478703,0.080078125 6.66650391,0.080078125 Z" id="Path" fill="#8DB0FF"></path>
                <path d="M6.66650391,33.9130859 C2.98478703,33.9130859 0,30.9289246 0,27.246582 L0,30.9132843 C0,34.5950011 2.98478703,37.5797882 6.66650391,37.5797882 L16.8332978,37.5797882 L22.5745239,43.3216401 C23.5310821,44.2775727 25.1670532,43.6006622 25.1670532,42.247467 L25.1670532,42.2468414 L17.8098755,34.8896637 C17.1848907,34.2646789 16.3365631,33.9130859 15.4525757,33.9130859 L6.66650391,33.9130859 Z" id="Path" fill="#669AF7"></path>
                <path d="M38.9999237,0.080078125 L34.8333588,0.080078125 C38.5150757,0.080078125 41.4998627,3.06486515 41.4998627,6.74658203 L41.4998627,30.579834 C41.4998627,32.4210053 40.0077821,33.9130859 38.1666108,33.9130859 L28.4996796,33.9130859 C26.6591339,33.9130859 25.1664277,35.4057922 25.1664277,37.2469635 L25.1664277,37.5797882 L38.9999237,37.5797882 C42.6816406,37.5797882 45.6664277,34.5950011 45.6664277,30.9132843 L45.6664277,6.74658203 C45.6664277,3.06486515 42.6822662,0.080078125 38.9999237,0.080078125 Z" id="Path" fill="#669AF7"></path>
                <path d="M31.583313,13.4969178 C31.583313,8.62278752 27.598175,4.67956543 22.7084045,4.74775692 C18.019455,4.81282039 14.1825867,8.62216195 14.0849914,13.3111114 C14.0268097,16.1357422 15.3068085,18.663208 17.3350372,20.3035584 C18.4254761,21.1856689 19.1055146,22.4769287 19.2375184,23.8726654 L19.5959931,27.6719971 L26.0704346,27.6719971 L26.4289093,23.8726654 C26.5602875,22.481308 27.2328185,21.1894227 28.320755,20.3123169 C30.3101959,18.708252 31.583313,16.2508545 31.583313,13.4969178 Z" id="Path" fill="#FFD664"></path>
                <path d="M22.7084045,4.74775692 C22.6983947,4.74775692 22.6883849,4.74838265 22.6777496,4.74900822 C26.0704346,5.95330811 28.4996796,9.19084171 28.4996796,12.9964295 C28.4996796,15.7509918 27.2271881,18.2083892 25.2377472,19.8118286 C24.1491851,20.6889344 23.4772797,21.9814453 23.3459014,23.3728027 L23.0299683,27.6713715 L26.0710601,27.6713715 L26.429535,23.8726654 C26.5609131,22.481308 27.2328185,21.188797 28.320755,20.3116913 C30.3108215,18.708252 31.583313,16.2508545 31.583313,13.4969178 C31.583313,8.62278752 27.598175,4.67956543 22.7084045,4.74775692 Z" id="Path" fill="#F9C646"></path>
                <path d="M19.5959931,27.6719971 L19.5959931,30.9964904 C19.5959931,31.9630585 20.3792572,32.7469482 21.3458252,32.7469482 L24.3206025,32.7469482 C25.2871704,32.7469482 26.0710601,31.9630585 26.0710601,30.9964904 L26.0710601,27.6719971 L19.5959931,27.6719971 Z" id="Path" fill="#DDF5FF"></path>
                <path d="M23.3083648,27.6719971 L23.3083648,30.9964904 C23.3083648,31.9630585 22.5251007,32.7469482 21.5585327,32.7469482 L24.3206025,32.7469482 C25.2871704,32.7469482 26.0710601,31.9630585 26.0710601,30.9964904 L26.0710601,27.6719971 L23.3083648,27.6719971 Z" id="Path" fill="#C1E9F4"></path>
                <g id="Group" transform="translate(5.285156, 9.128906)" fill="#FFD664">
                    <path d="M5.04804989,3.86814884 C4.9060363,3.86814884 4.762146,3.84375 4.62075798,3.79245003 L0.954055746,2.45927433 C0.305297852,2.22341911 -0.0294037266,1.50646973 0.206451336,0.857086102 C0.442932129,0.208953937 1.15925594,-0.125747641 1.80863957,0.109481852 L5.4753418,1.44265739 C6.12409969,1.67913818 6.45880127,2.39608773 6.22294621,3.04484562 C6.03839111,3.55284123 5.55854793,3.86814884 5.04804989,3.86814884 Z" id="Path"></path>
                    <path d="M1.38134766,14.5348053 C0.851455648,14.5348053 0.359725992,14.1950988 0.190185547,13.6633301 C-0.0187683906,13.0058136 0.344711344,12.3026275 1.0022277,12.093048 L4.66893009,10.9262848 C5.32707218,10.717331 6.03025822,11.0808105 6.239212,11.7383271 C6.4487915,12.3964692 6.08468636,13.0996552 5.42716984,13.308609 L1.76046761,14.4753722 C1.63409424,14.5154113 1.5070953,14.5348053 1.38134766,14.5348053 Z" id="Path"></path>
                    <path d="M5.04804989,8.5758667 L1.38134766,8.5758667 C0.691299398,8.5758667 0.131378094,8.01657113 0.131378094,7.3258973 C0.131378094,6.63584904 0.691299398,6.07592773 1.38134766,6.07592773 L5.04804989,6.07592773 C5.73872371,6.07592773 6.29801945,6.63584904 6.29801945,7.3258973 C6.29801945,8.01657113 5.73872371,8.5758667 5.04804989,8.5758667 Z" id="Path"></path>
                    <path d="M29.7152404,3.86814884 C29.2041168,3.86814884 28.7248993,3.55284123 28.5403442,3.04484562 C28.3044892,2.39608773 28.6391906,1.67913818 29.2879486,1.44328312 L32.9546509,0.109481852 C33.6040343,-0.126373211 34.3203583,0.208328207 34.5562134,0.857086102 C34.7920684,1.50646973 34.457367,2.22341911 33.808609,2.45927433 L30.1419067,3.79245003 C30.0011444,3.84375 29.8566284,3.86814884 29.7152404,3.86814884 Z" id="Path"></path>
                    <path d="M33.3819428,14.5348053 C33.2561951,14.5348053 33.1285705,14.5154113 33.0021973,14.4753722 L29.3361206,13.308609 C28.6779785,13.0996552 28.3144989,12.3964692 28.5240783,11.7383271 C28.7330322,11.0808105 29.4362183,10.717331 30.0937348,10.9262848 L33.760437,12.093048 C34.4185791,12.3026275 34.7820587,13.0058136 34.5724793,13.6633301 C34.4035645,14.1950988 33.9118348,14.5348053 33.3819428,14.5348053 Z" id="Path"></path>
                    <path d="M33.3813172,8.5758667 L29.7146148,8.5758667 C29.0245666,8.5758667 28.4646454,8.01657113 28.4646454,7.3258973 C28.4646454,6.63584904 29.0245666,6.07592773 29.7146148,6.07592773 L33.3813172,6.07592773 C34.071991,6.07592773 34.6312866,6.63584904 34.6312866,7.3258973 C34.6312866,8.01657113 34.071991,8.5758667 33.3813172,8.5758667 Z" id="Path"></path>
                </g>
            </g>
        </g>
    </g>
</svg>