<?xml version="1.0" encoding="UTF-8"?>
<svg width="80px" height="72px" viewBox="0 0 80 72" version="1.1" xmlns="http://www.w3.org/2000/svg" xmlns:xlink="http://www.w3.org/1999/xlink">
    <!-- Generator: Sketch 52.5 (67469) - http://www.bohemiancoding.com/sketch -->
    <title>service1@2x</title>
    <desc>Created with Sketch.</desc>
    <g id="Page-1" stroke="none" stroke-width="1" fill="none" fill-rule="evenodd">
        <g id="homepage" transform="translate(-713.000000, -1752.000000)">
            <g id="service1" transform="translate(713.000000, 1752.000000)">
                <path d="M48.3776856,52.6831055 L48.3776856,56.8188477 C48.3776856,60.8868408 50.5926514,64.6325684 54.1571045,66.5930175 C54.6038819,66.8389892 54.8815919,67.30896 54.8815919,67.8186034 L54.8815919,70.4705811 C54.8815919,71.2432861 54.2553711,71.8701172 53.4826659,71.8701172 L26.4398194,71.8701172 C25.6671142,71.8701172 25.0408936,71.2432861 25.0408936,70.4705811 L25.0408936,67.8186034 C25.0408936,67.30896 25.3186034,66.8389892 25.7653809,66.5930175 L26.4904784,66.194458 C29.6075439,64.4799805 31.5447998,61.2042236 31.5447998,57.6458741 L31.5447998,52.6831055 L48.3776856,52.6831055 Z" id="Path" fill="#8DB0FF"></path>
                <path d="M54.1571045,66.5930175 C50.5926514,64.6325684 48.3776856,60.8874512 48.3776856,56.8188477 L48.3776856,52.6831055 L31.5447998,52.6831055 L31.5447998,55.9350586 L43.4143066,55.9350586 C44.3597413,55.9350586 45.1257325,56.7010498 45.1257325,57.6464844 C45.1257325,61.8414306 47.1447753,65.7415772 50.4864502,68.1689453 C50.9033203,68.47229 51.1456298,68.9605712 51.1450195,69.4763184 L51.1431884,71.8701172 L53.4826659,71.8701172 C54.2553711,71.8701172 54.8815919,71.2438966 54.8815919,70.4711914 L54.8815919,67.8192139 C54.8815919,67.30896 54.6044922,66.8389892 54.1571045,66.5930175 Z" id="Path" fill="#669AF7"></path>
                <path d="M76.7480469,52.6831055 L3.25195312,52.6831055 C1.45568844,52.6831055 0,51.2268066 0,49.4311523 L0,3.25195313 C0,1.45568844 1.45568844,0 3.25195312,0 L76.7480469,0 C78.5443116,0 80,1.45568844 80,3.25195313 L80,49.4311523 C80,51.2268066 78.5443116,52.6831055 76.7480469,52.6831055 Z" id="Path" fill="#8DB0FF"></path>
                <path d="M76.7480469,0 L73.9837647,0 C75.7800294,0 77.2357178,1.45568844 77.2357178,3.25195313 L77.2357178,49.4311523 C77.2357178,51.2268066 75.7800294,52.6831055 73.9837647,52.6831055 L76.7480469,52.6831055 C78.5443116,52.6831055 80,51.2268066 80,49.4311523 L80,3.25195313 C80,1.45629875 78.5443116,0 76.7480469,0 Z" id="Path" fill="#669AF7"></path>
                <path d="M5.52856438,45.5285644 L5.52856438,7.15454094 C5.52856438,6.25671391 6.25610344,5.52856438 7.15454094,5.52856438 L72.8454591,5.52856438 C73.7438966,5.52856438 74.4714356,6.25610344 74.4714356,7.15454094 L74.4714356,45.5285644 C74.4714356,46.4263916 73.7438966,47.1545409 72.8454591,47.1545409 L7.15454094,47.1545409 C6.25610344,47.1545409 5.52856438,46.4263916 5.52856438,45.5285644 Z" id="Path" fill="#DDF5FF"></path>
                <path d="M25.0408936,47.1545409 L39.5123291,47.1545409 L39.5123291,41.1383056 C39.5123291,35.750122 35.144043,31.3824463 29.7558594,31.3824463 L20.3253173,31.3824463 C14.9371338,31.3824463 10.5688477,35.750122 10.5688477,41.1383056 L10.5688477,47.1545409 L25.0408936,47.1545409 Z" id="Path" fill="#FF933B"></path>
                <path d="M30.5596923,31.4178467 C33.3001709,33.1451416 35.1220703,36.1962891 35.1220703,39.6746827 L35.1220703,47.1545409 L39.5123291,47.1545409 L39.5123291,41.1383056 C39.5123291,36.0211181 35.5712891,31.8267822 30.5596923,31.4178467 Z" id="Path" fill="#F27D27"></path>
                <path d="M31.8701172,22.6019288 C31.8701172,18.8299561 28.8122559,15.772705 25.0408936,15.772705 C21.2689209,15.772705 18.21167,18.8299561 18.21167,22.6019288 L18.21167,26.1791992 C18.21167,29.9505616 21.2689209,33.0084228 25.0408936,33.0084228 C28.8122559,33.0084228 31.8701172,29.9505616 31.8701172,26.1791992 L31.8701172,22.6019288 Z" id="Path" fill="#FECCC1"></path>
                <path d="M25.0408936,15.7720947 C24.5672608,15.7720947 24.1046142,15.8209228 23.6584472,15.9124756 C26.7675781,16.5515137 29.105835,19.3029784 29.105835,22.6013184 L29.105835,26.1785889 C29.105835,29.4769287 26.7675781,32.2290039 23.6584472,32.868042 C24.1046142,32.9595947 24.5672608,33.0078125 25.0408936,33.0078125 C28.8122559,33.0078125 31.8701172,29.9505616 31.8701172,26.1785889 L31.8701172,22.6013184 C31.8701172,18.8299561 28.8122559,15.7720947 25.0408936,15.7720947 Z" id="Path" fill="#F9B3A7"></path>
                <path d="M43.9025878,23.5772705 L43.9025878,13.8214111 C43.9025878,12.9235841 44.6307373,12.1954345 45.5285644,12.1954345 L55.2844238,12.1954345 C56.1822509,12.1954345 56.9104003,12.9229736 56.9104003,13.8214111 L56.9104003,23.5772705 C56.9104003,24.4750977 56.1822509,25.203247 55.2844238,25.203247 L45.5285644,25.203247 C44.6307373,25.203247 43.9025878,24.4750977 43.9025878,23.5772705 Z" id="Path" fill="#FF6969"></path>
                <g id="Group" transform="translate(42.812500, 10.937500)" fill="#636363">
                    <path d="M26.1303711,22.1520997 L1.25244141,22.1520997 C0.578613281,22.1520997 0.0329590625,21.605835 0.0329590625,20.9326172 C0.0329590625,20.2587891 0.578613281,19.7131347 1.25244141,19.7131347 L26.1303711,19.7131347 C26.8041992,19.7131347 27.3498534,20.2587891 27.3498534,20.9326172 C27.3498534,21.605835 26.8041992,22.1520997 26.1303711,22.1520997 Z" id="Path"></path>
                    <path d="M26.1303711,15.4852295 L19.1387939,15.4852295 C18.4649658,15.4852295 17.9193116,14.9395752 17.9193116,14.265747 C17.9193116,13.5919189 18.4649658,13.0462647 19.1387939,13.0462647 L26.1303711,13.0462647 C26.8041992,13.0462647 27.3498534,13.5919189 27.3498534,14.265747 C27.3498534,14.9395752 26.8041992,15.4852295 26.1303711,15.4852295 Z" id="Path"></path>
                    <path d="M26.1303711,8.98132328 L19.1387939,8.98132328 C18.4649658,8.98132328 17.9193116,8.43505859 17.9193116,7.76184078 C17.9193116,7.08801266 18.4649658,6.54235844 19.1387939,6.54235844 L26.1303711,6.54235844 C26.8041992,6.54235844 27.3498534,7.08801266 27.3498534,7.76184078 C27.3498534,8.43505859 26.8041992,8.98132328 26.1303711,8.98132328 Z" id="Path"></path>
                    <path d="M26.1303711,2.47741703 L19.1387939,2.47741703 C18.4649658,2.47741703 17.9193116,1.93115234 17.9193116,1.25793453 C17.9193116,0.584106406 18.4649658,0.037841875 19.1387939,0.037841875 L26.1303711,0.037841875 C26.8041992,0.037841875 27.3498534,0.584106406 27.3498534,1.25793453 C27.3498534,1.93115234 26.8041992,2.47741703 26.1303711,2.47741703 Z" id="Path"></path>
                    <path d="M26.1303711,28.8183594 L1.25244141,28.8183594 C0.578613281,28.8183594 0.0329590625,28.272705 0.0329590625,27.5988769 C0.0329590625,26.9256592 0.578613281,26.3793945 1.25244141,26.3793945 L26.1303711,26.3793945 C26.8041992,26.3793945 27.3498534,26.9256592 27.3498534,27.5988769 C27.3498534,28.272705 26.8041992,28.8183594 26.1303711,28.8183594 Z" id="Path"></path>
                </g>
            </g>
        </g>
    </g>
</svg>